 http://imageshack.us/m/836/6291/2603834.jpg

Country.......: Poland
Genre.........: Comedy, Romance
Date release..: 21.01.2011 [World]
Director......: Piotr Weresniak
Writers.......: Ilona Lepkowska, Piotr Weresniak
Duration......: 103 min.
More..........: http://www.imdb.com/title/tt1808360
Trailer.......:

Pilot :
Charles (Piotr Adamczyk) has everything. Great earnings, is the best employee of a large company, drives a sports car and has a beautiful house, where every day waiting for him even more beautiful girlfriend Maria (Margaret Socha). It is charming, loves sex, and enslaves women in the blink of an eye. Well aware that women liked and delight uses the benefits. In addition to the bride has three mistresses. Wanda del Fuego (Margaret Foremniak), for which i whip handcuffs are just the beginning of fun, and sweet as infantile landrynka Paulina (Marta Zmuda Trzebiatowska) and a bit conservative, but a passionate Irena (Katarzyna Zielinska). Each of the women is different, but for him it's no problem. Charles doing well, jumping from bed to bed, and realizing their subsequent cravings. Such a life is a dream of many a man. Each story, however, once it ends. His fiancee Maria finally finds out the truth and will plan revenge. One day Charlie comes home and is convinced that he was dreaming. The threshold will welcome him fiancee and mistress - all ready to spend with him every moment in bed. Charles will find out what the sex life into high gear.

Cats :
Piotr Adamczyk   ...   Karol
Malgorzata Socha ... Maria
Marta Zmuda ... Paulina
Katarzyna Zielinska ... Irena
Malgorzata Foremniak ... Wanda
Katarzyna Glinka ... Adrianna Matysik
Anna Mucha ... Mira
Jan Frycz ... Psychoanalitic
Krzysztof Stelmaszyk ... Zdzislaw
Emilia Komarnicka ... Ania
Andrzej Zielinski ... Karol's boss
Grzegorz Malecki ... Roman Dolny
Rafal Rutkowski ... Eustachy
Tamara Arciuch ... Agata
Marek Barbasiewicz ... Father

Data Technical :
!!! SAMPLE !!!
Audio.....: Polish
Subtitles.: None
Format                           : AVI
Format/Info                      : Audio Video Interleave
File size                        : 701 MiB
Duration                         : 1h 43mn
Overall bit rate                 : 951 Kbps
Writing application              : VirtualDubMod 1.5.10.2 (build 2540/release)
Writing library                  : VirtualDubMod build 2540/release
Video
ID                               : 0
Format                           : MPEG-4 Visual
Format profile                   : Advanced Simple@L5
Format settings, BVOP            : Yes
Format settings, QPel            : No
Format settings, GMC             : No warppoints
Format settings, Matrix          : Default (H.263)
Codec ID                         : XVID
Codec ID/Hint                    : XviD
Duration                         : 1h 43mn
Bit rate                         : 809 Kbps
Width                            : 640 pixels
Height                           : 352 pixels
Display aspect ratio             : 16:9
Frame rate                       : 25.000 fps
Color space                      : YUV
Chroma subsampling               : 4:2:0
Bit depth                        : 8 bits
Scan type                        : Progressive
Bits/(Pixel*Frame)               : 0.144
Stream size                      : 596 MiB (85%)
Writing library                  : XviD 1.1.2 (UTC 2006-11-01)
Audio
ID                               : 1
Format                           : MPEG Audio
Format version                   : Version 1
Format profile                   : Layer 3
Mode                             : Joint stereo
Mode extension                   : MS Stereo
Codec ID                         : 55
Codec ID/Hint                    : MP3
Duration                         : 1h 43mn
Bit rate mode                    : Variable
Bit rate                         : 128 Kbps
Channel(s)                       : 2 channels
Sampling rate                    : 48.0 KHz
Stream size                      : 95.6 MiB (14%)
Alignment                        : Aligned on interleaves
Interleave, duration             : 24 ms (0.60 video frame)
Interleave, preload duration     : 142 ms
Writing library                  : LAME3.90.
Encoding settings                : -m j -V 4 -q 2 -lowpass 17.6 --abr 128

Screen : 
http://imageshack.us/m/269/9828/ochkarol22011s1.jpg 
http://imageshack.us/m/801/2594/ochkarol22011s2.jpg 
http://imageshack.us/m/233/7639/ochkarol22011s3.jpg 
http://imageshack.us/m/204/130/ochkarol22011s4.jpg 
http://imageshack.us/m/221/913/ochkarol22011s5in.jpg